<svg viewBox="0 0 100 100" xmlns="http://www.w3.org/2000/svg" id="Factory--Streamline-Ux">
  <desc>
    Factory Streamline Illustration: https://streamlinehq.com
  </desc>
  <path d="M49.936 92.5a39.949 39.949 0 0 0 34.608 -20H15.328a39.95 39.95 0 0 0 34.608 20Z" fill="#daedf7" stroke-width="1"></path>
  <path d="M13.5 69c0.546 1.2 1.17 2.363 1.828 3.5h69.216c0.658 -1.137 1.282 -2.3 1.828 -3.5Z" fill="#ffffff" stroke-width="1"></path>
  <path d="M90 52.5A40 40 0 1 0 13.564 69h72.872A39.844 39.844 0 0 0 90 52.5Z" fill="#b8ecff" stroke-width="1"></path>
  <path d="m11 69 78 0" fill="none" stroke="#45413c" stroke-linecap="round" stroke-linejoin="round" stroke-width="1"></path>
  <path d="M6.5 69 9 69" fill="none" stroke="#45413c" stroke-linecap="round" stroke-linejoin="round" stroke-width="1"></path>
  <path d="m91 69 2.5 0" fill="none" stroke="#45413c" stroke-linecap="round" stroke-linejoin="round" stroke-width="1"></path>
  <path d="m64 79.5 7.157 0" fill="none" stroke="#adc4d9" stroke-linecap="round" stroke-linejoin="round" stroke-width="1"></path>
  <path d="m59.825 79.5 1.789 0" fill="none" stroke="#adc4d9" stroke-linecap="round" stroke-linejoin="round" stroke-width="1"></path>
  <path d="m56.843 79.5 0.597 0" fill="none" stroke="#adc4d9" stroke-linecap="round" stroke-linejoin="round" stroke-width="1"></path>
  <path d="m34.157 76 7.156 0" fill="none" stroke="#adc4d9" stroke-linecap="round" stroke-linejoin="round" stroke-width="1"></path>
  <path d="m29.982 76 1.789 0" fill="none" stroke="#adc4d9" stroke-linecap="round" stroke-linejoin="round" stroke-width="1"></path>
  <path d="m27 76 0.596 0" fill="none" stroke="#adc4d9" stroke-linecap="round" stroke-linejoin="round" stroke-width="1"></path>
  <path d="m45.343 87 7.157 0" fill="none" stroke="#adc4d9" stroke-linecap="round" stroke-linejoin="round" stroke-width="1"></path>
  <path d="m41.169 87 1.789 0" fill="none" stroke="#adc4d9" stroke-linecap="round" stroke-linejoin="round" stroke-width="1"></path>
  <path d="m38.187 87 0.596 0" fill="none" stroke="#adc4d9" stroke-linecap="round" stroke-linejoin="round" stroke-width="1"></path>
  <path d="M42.7 27.51h2.112a1.38 1.38 0 0 1 1.38 1.359l0.668 43.491h-6.21l0.669 -43.491A1.38 1.38 0 0 1 42.7 27.51Z" fill="#ffffff" stroke="#45413c" stroke-linecap="round" stroke-linejoin="round" stroke-width="1"></path>
  <path d="m41.17 38.55 5.169 0 -0.074 -4.83 -5.021 0 -0.074 4.83z" fill="#ff6242" stroke="#45413c" stroke-linecap="round" stroke-linejoin="round" stroke-width="1"></path>
  <path d="m41 49.59 5.509 0 -0.073 -4.83 -5.361 0L41 49.59z" fill="#ff6242" stroke="#45413c" stroke-linecap="round" stroke-linejoin="round" stroke-width="1"></path>
  <path d="M23.4 47.52h42.78v24.84H23.4z" fill="#e0e0e0" stroke-width="1"></path>
  <path d="M23.4 57.18h42.78v15.18H23.4z" fill="#87898c" stroke-width="1"></path>
  <path d="M23.4 47.52h42.78v24.84H23.4z" fill="none" stroke="#45413c" stroke-linecap="round" stroke-linejoin="round" stroke-width="1"></path>
  <path d="M67.18 39.24h5.59a1 1 0 0 1 1 1v14.87h-7.59V40.24a1 1 0 0 1 1 -1Z" fill="#f7e5c6" stroke="#45413c" stroke-linecap="round" stroke-linejoin="round" stroke-width="1"></path>
  <path d="M60.35 44.07h-9.73a1 1 0 0 0 -1 1v10.04h11.73V45.07a1 1 0 0 0 -1 -1Z" fill="#e09f7e" stroke="#45413c" stroke-linecap="round" stroke-linejoin="round" stroke-width="1"></path>
  <path d="M79.29 55.11h-5.52V42h5.02a0.5 0.5 0 0 1 0.5 0.5Z" fill="none" stroke="#45413c" stroke-linecap="round" stroke-linejoin="round" stroke-width="1"></path>
  <path d="m73.77 42 5.52 5.52 -5.52 0 5.52 5.52 -5.52 0" fill="none" stroke="#45413c" stroke-linecap="round" stroke-linejoin="round" stroke-width="1"></path>
  <path d="M41.34 72.36h-6.9V50.28h6.4a0.5 0.5 0 0 1 0.5 0.5Z" fill="none" stroke="#45413c" stroke-linecap="round" stroke-linejoin="round" stroke-width="1"></path>
  <path d="m34.44 50.28 6.9 6.9 -6.9 0 6.9 6.9 -6.9 0 6.9 6.9" fill="none" stroke="#45413c" stroke-linecap="round" stroke-linejoin="round" stroke-width="1"></path>
  <path d="M39.27 72.36h42.089V56.11a1 1 0 0 0 -1 -1H40.27a1 1 0 0 0 -1 1Z" fill="#f8f8f8" stroke-width="1"></path>
  <path d="M39.27 62.7h42.09v9.66H39.27z" fill="#bdbec0" stroke-width="1"></path>
  <path d="M39.27 72.36h42.089V56.11a1 1 0 0 0 -1 -1H40.27a1 1 0 0 0 -1 1Z" fill="none" stroke="#45413c" stroke-linecap="round" stroke-linejoin="round" stroke-width="1"></path>
  <path d="M49.62 59.94h29.373a5.816 5.816 0 0 1 5.816 5.817v6.6" fill="none" stroke="#45413c" stroke-linecap="round" stroke-linejoin="round" stroke-width="1"></path>
  <path d="M29.59 24.75h3.49a1.381 1.381 0 0 1 1.38 1.36l0.67 46.25h-7.59l0.67 -46.25a1.381 1.381 0 0 1 1.38 -1.36Z" fill="#f7e5c6" stroke-width="1"></path>
  <path d="m28 40.62 -0.46 31.74 7.59 0 -0.46 -31.74 -6.67 0z" fill="#f0d3a8" stroke-width="1"></path>
  <path d="M19.24 24.75h3.49a1.381 1.381 0 0 1 1.38 1.36l0.67 46.25h-7.59l0.67 -46.25a1.381 1.381 0 0 1 1.38 -1.36Z" fill="#f7e5c6" stroke-width="1"></path>
  <path d="m17.65 40.62 -0.46 31.74 7.59 0 -0.46 -31.74 -6.67 0z" fill="#f0d3a8" stroke-width="1"></path>
  <path d="M29.59 24.75h3.49a1.381 1.381 0 0 1 1.38 1.36l0.67 46.25h-7.59l0.67 -46.25a1.381 1.381 0 0 1 1.38 -1.36Z" fill="none" stroke="#45413c" stroke-linecap="round" stroke-linejoin="round" stroke-width="1"></path>
  <path d="M71.012 72.361h4.83v-18.12a1.2 1.2 0 0 0 -1.2 -1.2h-2.43a1.2 1.2 0 0 0 -1.2 1.2Z" fill="#fff5e3" stroke="#45413c" stroke-linecap="round" stroke-linejoin="round" stroke-width="1"></path>
  <path d="M68.25 72.36H78.6v-4.5a2.4 2.4 0 0 0 -2.4 -2.4h-5.55a2.4 2.4 0 0 0 -2.4 2.4Z" fill="#f7e5c6" stroke="#45413c" stroke-linecap="round" stroke-linejoin="round" stroke-width="1"></path>
  <path d="M57.9 72.361h4.831v-18.12a1.2 1.2 0 0 0 -1.2 -1.2H59.1a1.2 1.2 0 0 0 -1.2 1.2Z" fill="#fff5e3" stroke="#45413c" stroke-linecap="round" stroke-linejoin="round" stroke-width="1"></path>
  <path d="M55.141 72.36h10.35v-4.5a2.4 2.4 0 0 0 -2.4 -2.4h-5.55a2.4 2.4 0 0 0 -2.4 2.4Z" fill="#f7e5c6" stroke="#45413c" stroke-linecap="round" stroke-linejoin="round" stroke-width="1"></path>
  <path d="M44.792 72.361h4.83v-18.12a1.2 1.2 0 0 0 -1.2 -1.2h-2.43a1.2 1.2 0 0 0 -1.2 1.2Z" fill="#fff5e3" stroke="#45413c" stroke-linecap="round" stroke-linejoin="round" stroke-width="1"></path>
  <path d="M42.03 72.36h10.35v-4.5a2.4 2.4 0 0 0 -2.4 -2.4h-5.549a2.4 2.4 0 0 0 -2.4 2.4Z" fill="#f7e5c6" stroke="#45413c" stroke-linecap="round" stroke-linejoin="round" stroke-width="1"></path>
  <path d="m53.07 44.07 0 4.14" fill="none" stroke="#45413c" stroke-linecap="round" stroke-linejoin="round" stroke-width="1"></path>
  <path d="m57.9 44.07 0 4.14" fill="none" stroke="#45413c" stroke-linecap="round" stroke-linejoin="round" stroke-width="1"></path>
  <path d="m53.07 46.83 4.83 0" fill="none" stroke="#45413c" stroke-linecap="round" stroke-linejoin="round" stroke-width="1"></path>
  <path d="m68.94 42 2.069 0" fill="none" stroke="#45413c" stroke-linecap="round" stroke-linejoin="round" stroke-width="1"></path>
  <path d="M19.24 24.75h3.49a1.381 1.381 0 0 1 1.38 1.36l0.67 46.25h-7.59l0.67 -46.25a1.381 1.381 0 0 1 1.38 -1.36Z" fill="none" stroke="#45413c" stroke-linecap="round" stroke-linejoin="round" stroke-width="1"></path>
  <path d="m17.19 28.89 7.59 0" fill="none" stroke="#45413c" stroke-linecap="round" stroke-linejoin="round" stroke-width="1"></path>
  <path d="m27.54 28.89 7.59 0" fill="none" stroke="#45413c" stroke-linecap="round" stroke-linejoin="round" stroke-width="1"></path>
  <path d="M44.79 9.57a2.07 2.07 0 1 1 -2.07 -2.07 2.07 2.07 0 0 1 2.07 2.07Z" fill="#bdbec0" stroke="#45413c" stroke-linecap="round" stroke-linejoin="round" stroke-width="1"></path>
  <path d="M26.159 16.47a2.07 2.07 0 1 1 -2.069 -2.07 2.069 2.069 0 0 1 2.069 2.07Z" fill="#bdbec0" stroke="#45413c" stroke-linecap="round" stroke-linejoin="round" stroke-width="1"></path>
  <path d="M39.639 14.031a3.448 3.448 0 0 0 -5.815 3.137c-0.024 0 -0.048 -0.008 -0.074 -0.008a2.07 2.07 0 1 0 2.033 2.445 3.443 3.443 0 0 0 3.856 -5.574Z" fill="#bdbec0" stroke="#45413c" stroke-linecap="round" stroke-linejoin="round" stroke-width="1"></path>
</svg>