<svg viewBox="0 0 100 100" xmlns="http://www.w3.org/2000/svg" id="Fruit-Juice--Streamline-Ux">
  <desc>
    Fruit Juice Streamline Illustration: https://streamlinehq.com
  </desc>
  <path d="M7.543 57.536a40 40 0 1 0 80 0 40 40 0 1 0 -80 0Z" fill="#d9edff" stroke-width="1"></path>
  <path d="M20.735 92.147a15.313 2.625 0 1 0 30.626 0 15.313 2.625 0 1 0 -30.626 0Z" fill="#b0d9ff" stroke-width="1"></path>
  <path d="M57.048 92.147a9.45 2.625 0 1 0 18.9 0 9.45 2.625 0 1 0 -18.9 0Z" fill="#b0d9ff" stroke-width="1"></path>
  <path d="M67.348 39.841c0.065 -4.228 -1.413 -8.856 -4.031 -13.778a1.051 1.051 0 0 1 1.417 -1.423 17 17 0 0 1 7.166 7.02c1.219 -1.887 0.743 -4.882 -0.381 -8.3a1.05 1.05 0 0 1 1.7 -1.108 18.783 18.783 0 0 1 5.045 7.593l3.983 -3.082a1.05 1.05 0 0 1 1.616 1.223l-2.08 5.154a17.448 17.448 0 0 1 10.133 2.541 1.05 1.05 0 0 1 -0.61 1.963c-3.986 -0.383 -7.474 0.116 -10.321 1.746 3.483 0.452 6.413 1.54 8.234 3.908A1.05 1.05 0 0 1 88 44.915c-4.524 -1.779 -8.628 -2.05 -12.472 -0.526Z" fill="#b0d9ff" stroke="#020064" stroke-linecap="round" stroke-linejoin="round" stroke-width="1"></path>
  <path d="M60.249362 89.625614 34.937904 48.874988l28.823618 -17.902582L89.07298 71.723032Z" fill="#ffffff" stroke-width="1"></path>
  <path d="m75.055 70.9 0.434 -0.118 0.677 -1.217 -1.372 0.372 -1 -3.688 3.683 -1 0.356 1.315 0.7 -1.25 -0.088 -0.326 0.317 -0.086 0.677 -1.217 -1.255 0.34 -1.218 -4.493 3.98 -1.079 0.407 1.5a16.174 16.174 0 0 0 0.573 -1.7L81.9 58.2l0.035 -0.009c0.1 -0.368 0.2 -0.736 0.272 -1.108l-0.568 0.154 -1.065 -3.928 1.892 -0.513c-0.025 -0.336 -0.07 -0.669 -0.115 -1l-2.037 0.552 -1.13 -4.188 2.016 -0.546c-0.132 -0.31 -0.261 -0.621 -0.413 -0.922l-1.864 0.505 -1.3 -4.785a16.022 16.022 0 0 0 -1.351 -1.171l0.092 0.34 -3.964 1.132 -1.008 -3.722 0.782 -0.223a16.212 16.212 0 0 0 -2.117 -0.888l0.114 0.421 -3.671 1.047 -0.611 -2.254c-0.348 -0.019 -0.695 -0.034 -1.042 -0.031l0.693 2.559 -3.906 1.114 -0.844 -3.118c-0.322 0.087 -0.638 0.192 -0.953 0.3l0.838 3.094 -4.485 1.28 -0.6 -2.2c-0.292 0.209 -0.578 0.424 -0.857 0.654l0.494 1.822 -3.079 0.879a16.2 16.2 0 0 0 -1.261 1.9l-0.064 0.116 0.9 3.154 -3.154 0.9 -0.686 1.234L52 49.572l1.3 4.568 -5.159 1.4 -0.991 -3.474 -0.679 1.234 0.714 2.5 -2.478 0.672 -0.677 1.217 3.429 -0.929 1.19 4.169 -6.849 1.853c-0.1 0.366 -0.184 0.732 -0.253 1.1l7.372 -2 1.12 3.918 -8.713 2.362c0.028 0.335 0.081 0.666 0.13 1l8.857 -2.4 1.278 4.477 -8.8 2.386c0.143 0.308 0.294 0.611 0.456 0.91l8.618 -2.335 1.049 3.675 -7.292 1.976c0.263 0.281 0.546 0.545 0.831 0.809l6.734 -1.826 1.841 6.448q0.548 0.132 1.1 0.224L54.15 76.57l5.159 -1.4 2.371 8.31c0.328 -0.06 0.65 -0.145 0.973 -0.224l-2.382 -8.346 3.474 -0.941 2.2 8.1c0.306 -0.151 0.6 -0.322 0.9 -0.493l-2.132 -7.867 4.5 -1.22 1.587 5.882c0.271 -0.3 0.527 -0.622 0.777 -0.949l-1.408 -5.194 3.92 -1.063 0.389 1.435 0.7 -1.25Zm2.161 -6.612 -3.682 1 -1.218 -4.488 3.684 -1Zm-12.072 -6.8 1.065 3.928 -4.5 1.22 -1.064 -3.929Zm-4.762 0.257 -1.134 -4.184 4.5 -1.22 1.134 4.184Zm5.725 -0.518 3.92 -1.063 1.065 3.936 -3.92 1.062Zm4.883 -1.324 3.682 -1 1.065 3.929 -3.682 1Zm-0.261 -0.963L69.6 50.759l3.683 -1 1.133 4.183Zm-0.963 0.261 -3.92 1.063 -1.134 -4.184 3.92 -1.062Zm-5.315 -4.084 -1.282 -4.733 3.906 -1.115 1.3 4.786Zm-0.963 0.261 -4.5 1.22 -1.263 -4.66 4.485 -1.281Zm-4.069 6.628 -3.686 1 -1.19 -4.169 3.742 -1.014Zm0.261 0.963 1.065 3.931 -3.621 0.981 -1.117 -3.914Zm1.325 4.891 1.218 4.494 -3.548 0.961L57.4 64.84Zm0.963 -0.261 4.5 -1.22 1.218 4.494 -4.5 1.219Zm5.465 -1.481 3.92 -1.062 1.218 4.493 -3.921 1.065ZM80.68 57.5l-3.98 1.075 -1.065 -3.929 3.981 -1.078Zm-1.325 -4.891 -3.981 1.078 -1.133 -4.187 3.98 -1.079Zm-2.727 -10.06 1.332 4.913 -3.98 1.079 -1.317 -4.861ZM73.017 48.8l-3.682 1 -1.3 -4.8 3.665 -1.05Zm-2.584 -9.533 1.009 3.721 -3.669 1.048 -1.009 -3.722Zm-4.628 1.321 1.008 3.721 -3.906 1.115L61.9 41.7Zm-4.866 1.388 1.009 3.724 -4.485 1.28 -1.009 -3.722ZM51.63 44.63l3.865 -1.1 1.005 3.72 -3.815 1.088Zm1.332 4.67 3.8 -1.085 1.26 4.648 -3.755 1.018Zm-4.54 7.2 5.159 -1.4 1.189 4.168 -5.159 1.4Zm1.463 5.128 5.159 -1.4 1.117 3.914L51 65.539Zm1.391 4.872 5.159 -1.4 1.277 4.477 -5.158 1.4Zm2.6 9.111 -1.048 -3.675 5.158 -1.4 1.049 3.675ZM60 73.951l-1.049 -3.675 3.535 -0.958 1 3.688Zm4.449 -1.2 -1 -3.689 4.5 -1.219 1 3.687Zm5.464 -1.482 -1 -3.688 3.92 -1.062 1 3.688Z" fill="#020064" stroke-width="1"></path>
  <path d="M60.249362 89.625614 34.937904 48.874988l28.823618 -17.902582L89.07298 71.723032Z" fill="none" stroke="#020064" stroke-linecap="round" stroke-linejoin="round" stroke-width="1"></path>
  <path d="M19.912 76.415a1.19 1.19 0 0 0 1.188 1.137h21.545a1.191 1.191 0 0 0 1.19 -1.137l2.274 -50.024a1.191 1.191 0 0 0 -1.19 -1.245H18.853a1.192 1.192 0 0 0 -1.19 1.245Z" fill="#ffffff" stroke="#020064" stroke-linecap="round" stroke-linejoin="round" stroke-width="1"></path>
  <path d="M43.707 33.556a1.192 1.192 0 0 0 -1.189 -1.264h-21.29a1.192 1.192 0 0 0 -1.189 1.264L22.3 70.891a1.2 1.2 0 0 0 0.683 1.015 20.09 20.09 0 0 0 17.776 0 1.2 1.2 0 0 0 0.683 -1.015Z" fill="#d9edff" stroke-width="1"></path>
  <path d="M43.707 33.556a1.192 1.192 0 0 0 -1.189 -1.264h-21.29a1.192 1.192 0 0 0 -1.189 1.264L22.3 70.891a1.2 1.2 0 0 0 0.683 1.015 20.09 20.09 0 0 0 17.776 0 1.2 1.2 0 0 0 0.683 -1.015Z" fill="none" stroke="#020064" stroke-linecap="round" stroke-linejoin="round" stroke-width="1"></path>
  <path d="m38.087 32.292 3.952 -28.744c0.086 -0.653 0.5 -1.138 0.934 -1.08l1.549 0.206c0.429 0.057 0.706 0.632 0.618 1.285l-3.6 28.333Z" fill="#ffffff" stroke="#020064" stroke-linecap="round" stroke-linejoin="round" stroke-width="1"></path>
  <path d="m29.7994515416 44.2652776828 2.0116785456 -8.0906562422 8.0906562422 2.0116785456 -2.0116785456 8.0906562422Z" fill="#ffffff" stroke="#020064" stroke-linecap="round" stroke-linejoin="round" stroke-width="1"></path>
  <path d="m23.3548753561 49.2431578637 6.6271574795 -1.6480366327 1.6480366326 6.6271574794 -6.6271574794 1.6480366327Z" fill="#ffffff" stroke-width="1"></path>
  <path d="m23.3548753561 49.2431578637 6.6271574795 -1.6480366327 1.6480366326 6.6271574794 -6.6271574794 1.6480366327Z" fill="none" stroke="#020064" stroke-linecap="round" stroke-linejoin="round" stroke-width="1"></path>
  <path d="m30.4985933467 59.0946693845 6.730024472 -1.6736175205 1.6736175206 6.7300244721 -6.7300244721 1.6736175205Z" fill="#ffffff" stroke="#020064" stroke-linecap="round" stroke-linejoin="round" stroke-width="1"></path>
  <path d="M42.636 74.282a13.55 13.55 0 1 0 27.1 0 13.55 13.55 0 1 0 -27.1 0Z" fill="#ffffff" stroke-width="1"></path>
  <path d="M42.636 74.282a13.55 13.55 0 1 0 27.1 0 13.55 13.55 0 1 0 -27.1 0Z" fill="none" stroke="#020064" stroke-linecap="round" stroke-linejoin="round" stroke-width="1"></path>
  <path d="M75.839 73.151a13.549 13.549 0 1 1 -23.72 13.1Z" fill="#b0d9ff" stroke="#020064" stroke-linecap="round" stroke-linejoin="round" stroke-width="1"></path>
  <path d="M52.119 86.255c0.016 0.028 0.035 0.053 0.05 0.081a14.885 14.885 0 0 0 23.712 -13.1c-0.015 -0.028 -0.026 -0.058 -0.042 -0.086Z" fill="#ffffff" stroke="#020064" stroke-linecap="round" stroke-linejoin="round" stroke-width="1"></path>
  <path d="M73.258 74.577 54.518 84.93a11.977 11.977 0 0 0 18.74 -10.353Z" fill="#b0d9ff" stroke-width="1"></path>
  <path d="m61.222 89.267 2.757 -9.564 9.565 2.757" fill="none" stroke="#020064" stroke-linecap="round" stroke-linejoin="round" stroke-width="1"></path>
  <path d="m63.979 79.703 4.259 7.709" fill="none" stroke="#020064" stroke-linecap="round" stroke-linejoin="round" stroke-width="1"></path>
  <path d="M52.119 86.255c0.016 0.028 0.035 0.053 0.05 0.081a14.885 14.885 0 0 0 23.712 -13.1c-0.015 -0.028 -0.026 -0.058 -0.042 -0.086Z" fill="none" stroke="#020064" stroke-linecap="round" stroke-linejoin="round" stroke-width="1"></path>
  <path d="M32.175 88.573a4.585 4.585 0 1 0 9.17 0 4.585 4.585 0 1 0 -9.17 0Z" fill="#b0d9ff" stroke="#020064" stroke-linecap="round" stroke-linejoin="round" stroke-width="1"></path>
  <path d="M40.587 87.808a4.585 4.585 0 1 0 9.17 0 4.585 4.585 0 1 0 -9.17 0Z" fill="#b0d9ff" stroke-width="1"></path>
  <path d="M40.587 87.808a4.585 4.585 0 1 0 9.17 0 4.585 4.585 0 1 0 -9.17 0Z" fill="none" stroke="#020064" stroke-linecap="round" stroke-linejoin="round" stroke-width="1"></path>
  <path d="M23.172 88.126a4.585 4.585 0 1 0 9.17 0 4.585 4.585 0 1 0 -9.17 0Z" fill="#b0d9ff" stroke-width="1"></path>
  <path d="M23.172 88.126a4.585 4.585 0 1 0 9.17 0 4.585 4.585 0 1 0 -9.17 0Z" fill="none" stroke="#020064" stroke-linecap="round" stroke-linejoin="round" stroke-width="1"></path>
  <path d="M27.207 81.41a4.585 4.585 0 1 0 9.17 0 4.585 4.585 0 1 0 -9.17 0Z" fill="#b0d9ff" stroke-width="1"></path>
  <path d="M27.207 81.41a4.585 4.585 0 1 0 9.17 0 4.585 4.585 0 1 0 -9.17 0Z" fill="none" stroke="#020064" stroke-linecap="round" stroke-linejoin="round" stroke-width="1"></path>
  <path d="M22.689 71.439c0.9 2.908 -0.237 5.848 -2.546 6.565s-4.915 -1.06 -5.818 -3.968c-0.644 -2.076 0.409 -6.206 1.065 -8.4a1.05 1.05 0 0 1 1.665 -0.516c1.784 1.437 4.99 4.243 5.634 6.319Z" fill="#ffffff" stroke="#020064" stroke-linecap="round" stroke-linejoin="round" stroke-width="1"></path>
  <path d="M19.9 76.974c-1.717 -0.96 -3.794 -0.8 -5.693 -0.73a1.645 1.645 0 0 0 0.085 3.286c1.263 -0.044 2.907 -0.3 4.061 0.342 1.849 1.034 3.395 -1.866 1.547 -2.9Z" fill="#ffffff" stroke="#020064" stroke-linecap="round" stroke-linejoin="round" stroke-width="1"></path>
  <path d="M36.001 79.895a4.585 4.585 0 1 0 9.17 0 4.585 4.585 0 1 0 -9.17 0Z" fill="#b0d9ff" stroke-width="1"></path>
  <path d="M36.001 79.895a4.585 4.585 0 1 0 9.17 0 4.585 4.585 0 1 0 -9.17 0Z" fill="none" stroke="#020064" stroke-linecap="round" stroke-linejoin="round" stroke-width="1"></path>
  <path d="M18.109 81.487a4.585 4.585 0 1 0 9.17 0 4.585 4.585 0 1 0 -9.17 0Z" fill="#b0d9ff" stroke-width="1"></path>
  <path d="M18.109 81.487a4.585 4.585 0 1 0 9.17 0 4.585 4.585 0 1 0 -9.17 0Z" fill="none" stroke="#020064" stroke-linecap="round" stroke-linejoin="round" stroke-width="1"></path>
  <path d="M21.271 75.309a4.585 4.585 0 1 0 9.17 0 4.585 4.585 0 1 0 -9.17 0Z" fill="#b0d9ff" stroke-width="1"></path>
  <path d="M21.271 75.309a4.585 4.585 0 1 0 9.17 0 4.585 4.585 0 1 0 -9.17 0Z" fill="none" stroke="#020064" stroke-linecap="round" stroke-linejoin="round" stroke-width="1"></path>
  <path d="M30.621 73.917a4.585 4.585 0 1 0 9.17 0 4.585 4.585 0 1 0 -9.17 0Z" fill="#b0d9ff" stroke="#020064" stroke-linecap="round" stroke-linejoin="round" stroke-width="1"></path>
</svg>