<svg viewBox="0 0 100 100" xmlns="http://www.w3.org/2000/svg" id="Phone-Repairing-2--Streamline-Ux">
  <desc>
    Phone Repairing 2 Streamline Illustration: https://streamlinehq.com
  </desc>
  <path d="M11.595 54.994a40 40 0 1 0 80 0 40 40 0 1 0 -80 0Z" fill="#daedf7" stroke="#daedf7" stroke-width="1"></path>
  <path d="M19.638 85.081a32.239 2.363 0 1 0 64.478 0 32.239 2.363 0 1 0 -64.478 0Z" fill="#45413c" opacity=".15" stroke-width="1"></path>
  <path d="M88.344 73.017H14.831v1.777a4.725 4.725 0 0 0 4.725 4.725h64.063a4.725 4.725 0 0 0 4.725 -4.725Z" fill="#daedf7" stroke="#45413c" stroke-linecap="round" stroke-linejoin="round" stroke-width="1"></path>
  <path d="M82.809 60a4.2 4.2 0 0 0 -3.837 -2.494H24.205A4.2 4.2 0 0 0 20.367 60l-5.261 11.838a3.15 3.15 0 0 0 2.878 4.43h67.208a3.15 3.15 0 0 0 2.879 -4.43Z" fill="#ffffff" stroke="#45413c" stroke-linecap="round" stroke-linejoin="round" stroke-width="1"></path>
  <path d="m22.865 61.744 -1.681 4.221" fill="none" stroke="#45413c" stroke-linecap="round" stroke-linejoin="round" stroke-width="1"></path>
  <path d="M18.587 69.725a1.05 1.05 0 1 0 2.1 0 1.05 1.05 0 1 0 -2.1 0Z" fill="#45413c" stroke-width="1"></path>
  <path d="M82.195946 66.148742a1.7240070004 2.31000938 0.2291830417 1 0 -3.447986 -0.013896 1.7240070004 2.31000938 0.2291830417 1 0 3.447986 0.013896Z" fill="#ffffff" stroke="#45413c" stroke-linecap="round" stroke-linejoin="round" stroke-width="1"></path>
  <path d="m74.536 59.615 -48.641 0 -4.056 14.142 55.965 0 -3.268 -14.142z" fill="#00b8f0" stroke-width="1"></path>
  <path d="m45.613 59.615 -19.718 0 -4.056 14.142 23.774 -14.142z" fill="#4acfff" stroke-width="1"></path>
  <path d="m74.536 59.615 -48.641 0 -4.056 14.142 55.965 0 -3.268 -14.142z" fill="none" stroke="#45413c" stroke-linecap="round" stroke-linejoin="round" stroke-width="1"></path>
  <path d="M40.061 64.509h20.106v3.15H40.061z" fill="#bf8256" stroke="#45413c" stroke-linecap="round" stroke-linejoin="round" stroke-width="1"></path>
  <path d="m47.471 64.509 5.285 0 0 3.15 -5.285 0Z" fill="#daedf7" stroke="#45413c" stroke-linecap="round" stroke-linejoin="round" stroke-width="1"></path>
  <path d="m40.109 64.509 10.041 0" fill="none" stroke="#45413c" stroke-linecap="round" stroke-linejoin="round" stroke-width="1"></path>
  <path d="M33.727 43.921a0.976 0.976 0 0 0 0.9 -0.731c0.586 -1.47 1.629 -2.676 -1.142 -3.674 -6.213 -2.238 -7.858 -6.455 -8.568 -12.461 -0.316 -2.676 -1.688 -2.972 -3.177 -2.259s-2.025 0.72 -1.638 3.934c0.868 7.208 3.009 11.623 10.064 14.619 2.27 0.962 1.971 0.892 3.561 0.572Z" fill="#ffdb94" stroke="#45413c" stroke-linecap="round" stroke-linejoin="round" stroke-width="1"></path>
  <path d="M33.062 39.336a0.723 0.723 0 0 1 0.8 -0.458A3.657 3.657 0 0 0 37 37.972a10.022 10.022 0 0 1 6.765 -2.621h2.871l0.026 0h3.453a16.4 16.4 0 0 1 16.4 16.4v2.117h-6.35v10.641H40.061V43.6a9.921 9.921 0 0 1 -5.522 1.685 10.1 10.1 0 0 1 -1.785 -0.159q-0.279 -0.05 -0.552 -0.113a1.051 1.051 0 0 1 -0.743 -1.392Z" fill="#ffe500" stroke-width="1"></path>
  <path d="M66.517 51.756a16.4 16.4 0 0 0 -16.4 -16.4H46.66a0.063 0.063 0 0 1 -0.017 0h-2.879A10.022 10.022 0 0 0 37 37.972a3.658 3.658 0 0 1 -3.134 0.906 0.721 0.721 0 0 0 -0.8 0.458l-0.67 1.794c0.607 0.248 1.353 0.55 1.473 0.571A3.658 3.658 0 0 0 37 40.8a10.022 10.022 0 0 1 6.765 -2.621h2.871l0.025 0h3.454a16.389 16.389 0 0 1 16.367 15.7h0.036Z" fill="#fff48c" stroke-width="1"></path>
  <path d="M33.062 39.336a0.723 0.723 0 0 1 0.8 -0.458A3.657 3.657 0 0 0 37 37.972a10.022 10.022 0 0 1 6.765 -2.621h2.871l0.026 0h3.453a16.4 16.4 0 0 1 16.4 16.4v2.117h-6.35v10.641H40.061V43.6a9.921 9.921 0 0 1 -5.522 1.685 10.1 10.1 0 0 1 -1.785 -0.159q-0.279 -0.05 -0.552 -0.113a1.051 1.051 0 0 1 -0.743 -1.392Z" fill="none" stroke="#45413c" stroke-linecap="round" stroke-linejoin="round" stroke-width="1"></path>
  <path d="M40.06 67.659h20.106v6.098H40.06z" fill="#45413c" stroke="#45413c" stroke-linecap="round" stroke-linejoin="round" stroke-width="1"></path>
  <path d="M46.411 34.3v-2.121h7.407V34.3c-0.561 2.836 -1.481 5.217 -3.7 7.143 -2.226 -1.93 -3.146 -4.311 -3.707 -7.143Z" fill="#ffdb94" stroke-width="1"></path>
  <path d="M46.853 36.134c-0.172 -0.59 -0.317 -1.2 -0.442 -1.838v-2.117h7.407V34.3c-0.126 0.635 -0.27 1.248 -0.442 1.838a10.379 10.379 0 0 1 -6.523 -0.004Z" fill="#ffbe3d" stroke-width="1"></path>
  <path d="M46.411 34.3v-2.121h7.407V34.3h0c-0.561 2.836 -1.481 5.217 -3.7 7.143 -2.226 -1.93 -3.146 -4.311 -3.707 -7.143Z" fill="none" stroke="#45413c" stroke-linecap="round" stroke-linejoin="round" stroke-width="1"></path>
  <path d="M59.941 21.474v-2.5a9.981 9.981 0 1 0 -19.961 0v2.5a2 2 0 1 0 0 3.992c0.042 0 0.081 -0.01 0.122 -0.012a9.968 9.968 0 0 0 19.717 0c0.041 0 0.08 0.012 0.122 0.012a2 2 0 0 0 0 -3.992Z" fill="#ffdb94" stroke="#45413c" stroke-linecap="round" stroke-linejoin="round" stroke-width="1"></path>
  <path d="M42.974 25.716a1.248 1.248 0 1 0 2.496 0 1.248 1.248 0 1 0 -2.496 0Z" fill="#ffbe3d" stroke-width="1"></path>
  <path d="M54.451 25.716a1.248 1.248 0 1 0 2.496 0 1.248 1.248 0 1 0 -2.496 0Z" fill="#ffbe3d" stroke-width="1"></path>
  <path d="M46.958 28.25a4.354 4.354 0 0 0 6.005 0" fill="none" stroke="#45413c" stroke-linecap="round" stroke-linejoin="round" stroke-width="1"></path>
  <path d="M60.658 14.117a6.337 6.337 0 0 0 -3.047 -5.2c-0.985 -2.264 -4.037 -3.915 -7.65 -3.915S43.3 6.657 42.31 8.921a6.34 6.34 0 0 0 -3.047 5.2l-0.241 6.726a1.092 1.092 0 0 0 1.091 1.13 1 1 0 0 0 0.988 -0.857l0.378 -2.647a4.055 4.055 0 0 1 3.9 -3.48 11.061 11.061 0 0 0 9.174 0 4.056 4.056 0 0 1 3.895 3.48l0.377 2.647a1 1 0 0 0 0.989 0.857 1.092 1.092 0 0 0 1.09 -1.13Z" fill="#614b44" stroke-width="1"></path>
  <path d="m60.717 15.759 -0.059 -1.642a6.336 6.336 0 0 0 -3.047 -5.2c-0.985 -2.265 -4.037 -3.915 -7.65 -3.915S43.3 6.656 42.31 8.921a6.338 6.338 0 0 0 -3.047 5.2l-0.061 1.7a7.059 7.059 0 0 1 2.891 -3.764 0.955 0.955 0 0 0 0.326 -0.37C43.506 9.539 46.472 8 49.961 8s6.454 1.539 7.541 3.683a0.955 0.955 0 0 0 0.326 0.37 7.119 7.119 0 0 1 2.889 3.706Z" fill="#947063" stroke-width="1"></path>
  <path d="M60.658 14.117a6.337 6.337 0 0 0 -3.047 -5.2c-0.985 -2.264 -4.037 -3.915 -7.65 -3.915S43.3 6.657 42.31 8.921a6.34 6.34 0 0 0 -3.047 5.2l-0.241 6.726a1.092 1.092 0 0 0 1.091 1.13 1 1 0 0 0 0.988 -0.857l0.378 -2.647a4.055 4.055 0 0 1 3.9 -3.48 11.061 11.061 0 0 0 9.174 0 4.056 4.056 0 0 1 3.895 3.48l0.377 2.647a1 1 0 0 0 0.989 0.857 1.092 1.092 0 0 0 1.09 -1.13Z" fill="none" stroke="#45413c" stroke-linecap="round" stroke-linejoin="round" stroke-width="1"></path>
  <path d="M42.31 8.921a3.812 3.812 0 0 0 -0.2 2.572" fill="none" stroke="#45413c" stroke-linecap="round" stroke-linejoin="round" stroke-width="1"></path>
  <path d="M57.612 8.921a3.818 3.818 0 0 1 0.2 2.572" fill="none" stroke="#45413c" stroke-linecap="round" stroke-linejoin="round" stroke-width="1"></path>
  <path d="M54.548 14.989a7.714 7.714 0 0 0 1.572 -1" fill="#a86c4d" stroke="#45413c" stroke-linecap="round" stroke-linejoin="round" stroke-width="1"></path>
  <path d="M45.373 14.989a7.678 7.678 0 0 1 -1.571 -1" fill="#a86c4d" stroke="#45413c" stroke-linecap="round" stroke-linejoin="round" stroke-width="1"></path>
  <path d="M41.477 21.973a3.992 3.992 0 1 0 7.984 0 3.992 3.992 0 1 0 -7.984 0Z" fill="#00b8f0" stroke-width="1"></path>
  <path d="M47.578 18.583a3.992 3.992 0 0 0 -4.35 6.694l4.344 -6.683Z" fill="#4acfff" stroke-width="1"></path>
  <path d="M50.46 21.973a3.992 3.992 0 1 0 7.984 0 3.992 3.992 0 1 0 -7.984 0Z" fill="#00b8f0" stroke-width="1"></path>
  <path d="M56.564 18.585a3.993 3.993 0 0 0 -4.354 6.692l0.005 0 4.344 -6.683Z" fill="#4acfff" stroke-width="1"></path>
  <path d="M55.957 21.972a1.626 1.626 0 0 0 -3 0" fill="none" stroke="#45413c" stroke-linecap="round" stroke-linejoin="round" stroke-width="1"></path>
  <path d="M43.964 21.972a1.626 1.626 0 0 1 3 0" fill="none" stroke="#45413c" stroke-linecap="round" stroke-linejoin="round" stroke-width="1"></path>
  <path d="M41.477 21.973a3.992 3.992 0 1 0 7.984 0 3.992 3.992 0 1 0 -7.984 0Z" fill="none" stroke="#45413c" stroke-linecap="round" stroke-linejoin="round" stroke-width="1"></path>
  <path d="M50.46 21.973a3.992 3.992 0 1 0 7.984 0 3.992 3.992 0 1 0 -7.984 0Z" fill="none" stroke="#45413c" stroke-linecap="round" stroke-linejoin="round" stroke-width="1"></path>
  <path d="M76.972 35.485h-25.53a2 2 0 0 0 -2 2v16.748h29.53V37.485a2 2 0 0 0 -2 -2Z" fill="#f8f8f8" stroke="#45413c" stroke-linecap="round" stroke-linejoin="round" stroke-width="1"></path>
  <path d="M75.888 37.57H52.526a1 1 0 0 0 -1 1v15.663h25.362V38.57a1 1 0 0 0 -1 -1Z" fill="#00b8f0" stroke-width="1"></path>
  <path d="M46.836 54.758a0.525 0.525 0 0 1 0.525 -0.525h33.692a0.525 0.525 0 0 1 0.525 0.525v1.68a1.088 1.088 0 0 1 -1.05 1.075H47.886a1.088 1.088 0 0 1 -1.05 -1.075Z" fill="#f8f8f8" stroke="#45413c" stroke-linecap="round" stroke-linejoin="round" stroke-width="1"></path>
  <path d="m15.56 30.339 13.673 -5.483a4.191 4.191 0 0 0 4.4 0.821 3.727 3.727 0 0 0 0.388 -0.182 0.525 0.525 0 0 0 -0.044 -0.944l-1.836 -0.785a1.8 1.8 0 0 1 1.417 -3.313l1.835 0.785a0.525 0.525 0 0 0 0.713 -0.62 3.666 3.666 0 0 0 -0.136 -0.407 4.194 4.194 0 0 0 -8.083 1.3L14.219 27a3.6 3.6 0 1 0 1.341 3.344Zm-4.666 -0.07a1.2 1.2 0 1 1 1.562 0.668 1.2 1.2 0 0 1 -1.562 -0.668Z" fill="#daedf7" stroke="#45413c" stroke-linecap="round" stroke-linejoin="round" stroke-width="1"></path>
  <path d="M24.192 21.668a1.142 1.142 0 0 1 1.08 0.841l0.7 2.549a2.744 2.744 0 0 1 -1.923 3.37l-1.324 0.362a2.743 2.743 0 0 1 -3.369 -1.924l-0.7 -2.549a1.144 1.144 0 0 1 0.5 -1.274 9.238 9.238 0 0 1 5.036 -1.375Z" fill="#ffdb94" stroke-width="1"></path>
  <path d="M19.159 23.043a9.238 9.238 0 0 1 5.033 -1.375 1.142 1.142 0 0 1 1.08 0.841l0.4 1.444a1.245 1.245 0 0 0 -0.677 -0.225 10.219 10.219 0 0 0 -5.57 1.521 1.245 1.245 0 0 0 -0.4 0.416l-0.369 -1.348a1.143 1.143 0 0 1 0.503 -1.274Z" fill="#ffe9bd" stroke-width="1"></path>
  <path d="M24.193 21.668a1.144 1.144 0 0 1 1.08 0.842l0.7 2.548a2.744 2.744 0 0 1 -1.923 3.37l-1.324 0.362a2.743 2.743 0 0 1 -3.369 -1.924l-0.7 -2.548a1.142 1.142 0 0 1 0.5 -1.274 9.228 9.228 0 0 1 5.035 -1.376Z" fill="none" stroke="#45413c" stroke-linecap="round" stroke-linejoin="round" stroke-width="1"></path>
  <path d="M70.605 37.57H52.576a1.051 1.051 0 0 0 -1.05 1.05v15.613h1.426Z" fill="#4acfff" stroke-width="1"></path>
  <path d="M60.063 49.814a1.044 1.044 0 0 1 -0.69 -0.259l-3.242 -2.83a1.049 1.049 0 0 1 0 -1.582l3.242 -2.83a1.05 1.05 0 1 1 1.38 1.582l-2.336 2.039 2.336 2.039a1.05 1.05 0 0 1 -0.69 1.841Z" fill="#ffffff" stroke="#009fd9" stroke-width="1"></path>
  <path d="M68.351 49.814a1.05 1.05 0 0 1 -0.69 -1.841L70 45.934 67.661 43.9a1.05 1.05 0 0 1 1.38 -1.582l3.243 2.83a1.051 1.051 0 0 1 0 1.582l-3.243 2.83a1.044 1.044 0 0 1 -0.69 0.254Z" fill="#ffffff" stroke="#009fd9" stroke-width="1"></path>
  <path d="M62.045 50.586a1.049 1.049 0 0 1 -0.9 -1.59l4.322 -7.2a1.05 1.05 0 1 1 1.8 1.08l-4.322 7.2a1.048 1.048 0 0 1 -0.9 0.51Z" fill="#ffffff" stroke="#009fd9" stroke-width="1"></path>
  <path d="M75.888 37.57H52.526a1 1 0 0 0 -1 1v15.663h25.362V38.57a1 1 0 0 0 -1 -1Z" fill="none" stroke="#45413c" stroke-linecap="round" stroke-linejoin="round" stroke-width="1"></path>
  <path d="M61.589 59.692a1.144 1.144 0 0 1 -0.816 -1.1l0.01 -2.643a2.742 2.742 0 0 1 2.753 -2.733l1.372 0.005a2.742 2.742 0 0 1 2.733 2.753l-0.009 2.643a1.142 1.142 0 0 1 -0.825 1.093 9.228 9.228 0 0 1 -5.218 -0.018Z" fill="#ffdb94" stroke-width="1"></path>
  <path d="M60.783 58.029a2.742 2.742 0 0 1 2.753 -2.729l1.372 0.005a2.74 2.74 0 0 1 2.726 2.677l0.008 -2a2.744 2.744 0 0 0 -2.734 -2.753l-1.372 -0.005a2.742 2.742 0 0 0 -2.753 2.733l-0.01 2.643c0 0.016 0.007 0.031 0.007 0.048Z" fill="#ffe9bd" stroke-width="1"></path>
  <path d="M61.588 59.692a1.143 1.143 0 0 1 -0.815 -1.1l0.01 -2.642a2.742 2.742 0 0 1 2.753 -2.733l1.372 0.005a2.742 2.742 0 0 1 2.733 2.753l-0.009 2.643a1.144 1.144 0 0 1 -0.824 1.093 9.229 9.229 0 0 1 -5.22 -0.019Z" fill="none" stroke="#45413c" stroke-linecap="round" stroke-linejoin="round" stroke-width="1"></path>
</svg>