<svg xmlns="http://www.w3.org/2000/svg" fill="none" viewBox="0 0 200 200" id="Pharmacist--Streamline-Brooklyn">
  <desc>
    Pharmacist Streamline Illustration: https://streamlinehq.com
  </desc>
  <g id="pharmacist--health-care-pharmacist">
    <g id="table">
      <path id="vector" fill="#191919" d="M191.974 154.052c-0.052 -1.693 -177.0581 1.636 -177.2161 1.64 -2.747 0.069 -2.989 0.123 -2.995 0.554 -0.017 1.087 138.9221 -0.922 138.9351 -0.922 42.915 -0.311 41.307 -0.264 41.276 -1.272Z" stroke-width="1"></path>
      <path id="vector_2" fill="#191919" d="M97.88 164.711c-86.628 1.482 -81.675 1.443 -81.671 0.922 0 -0.569 0 -0.427 71.9 -1.759 98.744 -1.828 98.718 -2.148 98.752 -1.288 0.039 0.892 5.429 0.514 -88.981 2.125Z" stroke-width="1"></path>
    </g>
    <g id="person">
      <path id="vector_3" fill="#38a1ff" d="M147.287 115.277c-1.959 -1.313 -6.352 -1.481 -8.8 -1.664 -1.53 -0.115 -0.121 -0.53 1.65 -8.833 0.065 -0.218 0.087 -0.447 0.062 -0.673 -0.024 -0.227 -0.093 -0.446 -0.204 -0.645 -0.11 -0.2 -0.259 -0.375 -0.438 -0.515 -0.179 -0.141 -0.385 -0.245 -0.604 -0.305 -4.292 -1.84 -21.381 -5.2458 -21.489 -5.6058 -0.07 -0.236 0.169 -0.351 0.32 -0.453 1.243 -0.842 2.444 -1.757 3.751 -2.483 0.861 -0.3977 1.569 -1.0648 2.018 -1.9006 0.449 -0.8358 0.613 -1.7949 0.469 -2.7324 -0.147 -2.925 -0.142 -5.8556 0.016 -8.78 0.1 -3.767 -0.829 -4.384 0.6 -3.956 8.4 2.521 16.678 8.136 22.632 14.437 15.618 16.5268 11.273 37.7368 -1.4 46.5538 -6.71 4.666 -12.586 6.841 -20.781 4.947 -9.6 -2.218 -19.327 -10.3 -22.02 -14.25 -0.179 -0.222 -0.293 -0.49 -0.33 -0.773 -0.037 -0.283 0.004 -0.571 0.12 -0.832 1.373 -3.387 3.25 -6.546 5.567 -9.373 0.194 -0.26 0.447 -0.471 0.739 -0.614 0.292 -0.143 0.614 -0.214 0.939 -0.208 3.932 0.056 5.723 -0.822 12.01 -1.067 13.416 -0.525 16.912 -0.8 22.927 -0.193 0.748 0.103 1.508 0.076 2.246 -0.082Z" stroke-width="1"></path>
      <path id="vector_4" fill="#191919" d="M107.166 64.0921c-0.004 0.2209 -0.037 0.4402 -0.1 0.652 -1.448 3.165 -3.522 5.638 -7.148 6.337 -1.91 0.367 -2.553 -0.361 -2.366 0.759 0.1315 0.4847 0.1501 0.9931 0.0544 1.4861 -0.0957 0.4931 -0.3032 0.9576 -0.6064 1.3579 -0.3 0.358 -0.882 0.923 -1.22 0.6 -0.232 -0.222 0.172 -0.5 0.346 -0.7 0.4245 -0.6263 0.6095 -1.3845 0.521 -2.136 0.05 -3.074 -2.039 -0.051 -7.456 -6.7 -7.323 6.58 -11.9 -6.332 -3.229 -7.664 -0.3414 -1.41 -0.5424 -2.8504 -0.6 -4.3 -0.023 -0.612 -2.176 -2.249 -3.367 -4.527 -2.326 -4.45 -0.669 -10.706 2.744 -14.032 3.157 -3.078 5.677 -1.869 6.315 -2.778 5.012 -7.142 14.523 -5.823 18.69 -2.413 0.264 -0.4783 0.553 -0.9426 0.866 -1.391 6.635 -8.614 20.4 7.3 10.715 13.213 -0.491 0.3 -0.525 0.556 -0.329 1.075 0.777 1.9897 1.092 4.1296 0.923 6.2588 -0.17 2.1292 -0.82 4.1923 -1.901 6.0342 -0.864 1.5727 -2.285 2.766 -3.983 3.346 0.84 0.5514 1.517 1.3173 1.961 2.2182 0.444 0.901 0.639 1.9044 0.566 2.9062 -0.074 1.0018 -0.415 1.9657 -0.986 2.7918 -0.572 0.8262 -1.354 1.4845 -2.265 1.9068 -0.635 0.2986 -1.322 0.469 -2.023 0.5014 -0.7 0.0325 -1.401 -0.0737 -2.06 -0.3123 -0.66 -0.2387 -1.266 -0.6051 -1.783 -1.0784 -0.518 -0.4733 -0.937 -1.0441 -1.234 -1.6797 -0.317 -0.6688 -0.496 -1.3939 -0.529 -2.1331 -0.033 -0.7391 0.082 -1.4773 0.339 -2.1714 0.256 -0.6941 0.648 -1.3301 1.153 -1.8707s1.113 -0.9751 1.788 -1.2778c0.942 -0.391 1.97 -0.56 2.9 -0.995 3.229 -1.507 3.08 -3.633 1.172 -3.867 -1.221 -0.15 -2.05 0.777 -3.554 1.594 -2.093 1.136 -3.5 -0.975 -4.188 -3.254 -2.105 -6.947 -2.376 -11.283 -8.1 -14.158 -6.107 -3.067 -13.626 1.759 -13.386 9.984 0.117 4.024 -0.161 14.382 6.313 19.891 4.184 3.56 8.866 3.718 12.432 -0.462 2.587 -3.034 2.249 -3.204 2.615 -3.012Zm10.483 -0.761c0.001 -1.2628 -0.494 -2.4756 -1.378 -3.3774 -0.884 -0.9017 -2.086 -1.4205 -3.349 -1.4446 -2.34 -0.008 -4.465 2.421 -4.439 5 0.003 1.2148 0.486 2.3792 1.343 3.2405 0.856 0.8612 2.018 1.3498 3.233 1.3595 1.236 -0.0449 2.405 -0.5685 3.262 -1.4602 0.856 -0.8916 1.333 -2.0814 1.328 -3.3178Zm-32.269 3.569c0.5511 0.0011 1.0965 -0.1123 1.6016 -0.3329 0.505 -0.2207 0.9587 -0.5439 1.3324 -0.9491 0.086 -0.0567 0.1593 -0.1307 0.2152 -0.2174 0.0559 -0.0866 0.0931 -0.1839 0.1093 -0.2857 0.0162 -0.1018 0.011 -0.2058 -0.0153 -0.3055 -0.0263 -0.0997 -0.073 -0.1928 -0.1372 -0.2734 -2.878 -4.74 -1.629 -6.242 -3.135 -5.85 -4.763 1.241 -4.413 8.145 0.029 8.214Zm23.586 -20.237c-1.227 -15.276 -14.193 -14.01 -14.4 -12.707 8.849 -0.779 11.993 4.088 14.4 12.706v0.001Z" stroke-width="1"></path>
      <path id="vector_5" fill="#38a1ff" d="M84.9858 128.084c-5.587 -18.755 -8.142 -23.28 -6.792 -25.758 3.71 -6.81 3.22 -6.24 3.634 -6.851 1.8 3.855 2.15 4.735 2.616 4.536 0.677 -0.2889 -2.374 -8.1469 -4.955 -11.7649 -0.1012 -0.1596 -0.1522 -0.3458 -0.1463 -0.5346 0.0059 -0.1888 0.0683 -0.3716 0.1793 -0.5245 0.811 -1.6 1.577 -3.2319 2.448 -4.7999 2.575 -4.644 2.778 -6.6411 3.785 -6.8001 3.429 -0.524 3.445 -0.3999 8.669 -0.6209 2.1 -0.091 -5.39 8.4 -8.931 48.1999 -0.0742 1.648 -0.2435 3.29 -0.507 4.918Z" stroke-width="1"></path>
      <path id="vector_6" fill="#191919" d="M130.134 113.728c-18.386 0.431 -18.234 3.174 -20 1.479 -1.058 -1.018 -1.083 -1 -0.566 -2.345l5.386 -13.9998c0.026 -0.1273 0.079 -0.2472 0.157 -0.3512 0.078 -0.1039 0.178 -0.1893 0.293 -0.25 0.115 -0.0607 0.241 -0.0951 0.371 -0.1007 0.13 -0.0057 0.259 0.0175 0.379 0.0679l21.59 5.1628c1.333 0.318 1.395 0.334 1.065 1.617 -0.705 2.735 -1.534 5.437 -2.391 8.129 -0.135 0.425 -0.406 0.431 -0.739 0.42 -1.845 -0.057 -3.694 0.127 -5.545 0.171Zm-15.034 -1.451c2.25 -5.939 3.8 -9.9 2.985 -10.093 -0.413 -0.1 -0.541 0.337 -0.735 0.889 -2.98 8.518 -3.043 11.297 -2.25 9.204Z" stroke-width="1"></path>
      <path id="vector_7" fill="#38a1ff" d="M123.08 82.1052c-0.609 8.644 1.028 9.116 -1.436 10.69 -4.956 3.167 -5.111 4.032 -5.914 3.991 -0.453 -0.0432 -0.907 0.0695 -1.288 0.3193 -0.38 0.2498 -0.664 0.6218 -0.804 1.0547 -1.1 2.6128 -4.664 11.1728 -5.317 13.9298 -0.34 1.441 -2.071 -1.122 -1.43 -3.174 3.071 -9.8228 3.952 -12.6778 4.916 -20.6618 0.282 -2.329 1.065 -9.3251 0.753 -11.6521 -0.094 -0.706 0.226 -0.936 0.848 -1 1.915 -0.216 3.85 -0.2049 5.763 0.0331 3.507 0.468 3.725 0.4299 3.716 1.1469 -0.021 1.772 -0.008 3.547 -0.008 5.322l0.201 0.0011Z" stroke-width="1"></path>
      <path id="vector_8" fill="#191919" d="M59.8879 68.7762c-0.0429 3.9045 -0.3171 7.803 -0.821 11.675 -0.428 3.263 -1.327 2.762 -12.778 2.627 -0.2085 0.0169 -0.4182 -0.0077 -0.617 -0.0723 -0.1989 -0.0647 -0.383 -0.1681 -0.5416 -0.3043 -0.1587 -0.1362 -0.2887 -0.3026 -0.3827 -0.4894 -0.094 -0.1868 -0.1499 -0.3904 -0.1647 -0.599 -0.314 -1.365 0.074 -5.569 0.277 -6.954 0.033 -0.224 0.027 -0.593 0.366 -0.544 0.273 0.04 0.079 0 0.152 6.519 0.022 2.052 -0.241 1.635 10.495 1.545 2.4 -0.02 1.994 -0.872 2.437 -4.621 0.116 -0.974 -0.125 -0.357 -5.667 -0.443 -1.477 -0.023 -1.272 -0.39 -0.927 -6.357 0.047 -0.812 0.535 -0.965 5.275 -0.749 2.206 0.1 1.586 0.119 1.762 -3.719 0.047 -1.014 0.01 -0.25 -12.489 -0.659 -0.743 -0.024 -0.469 0.188 -0.85 1.582 -0.135 0.5 -0.65 0.509 -0.818 -0.021 -0.0812 -1.5695 -0.0142 -3.1431 0.2 -4.7 0.35 -2.143 1.321 -2.208 8.685 -2.093 7.671 0.117 6.509 0.031 6.407 8.377Zm-5.958 -3.89c1.313 0.012 1.333 0.01 1.229 -1.309 -0.052 -0.648 0.34 -1.534 -0.177 -1.884 -0.47 -0.317 -1.3 -0.1 -1.974 -0.112 -1.239 -0.015 -1.239 -0.011 -1.292 1.2 -0.108 2.464 -0.392 2.082 2.214 2.105Zm-5.8 -1.506c0.009 0.4 -0.31 1.127 0.041 1.42 0.328 0.273 1.042 0.083 1.588 0.092 1.071 0.019 1.293 0.1 1.252 -0.488 -0.221 -3.144 0.414 -2.881 -1.233 -2.848 -1.647 0.033 -1.693 0.008 -1.653 1.824h0.005Zm7.793 -0.158c0 1.7 -0.091 1.658 1.044 1.687 1.795 0.045 1.795 0.045 1.8 -1.751 0 -1.144 -0.13 -1.288 -1.266 -1.389 -1.587 -0.139 -1.585 -0.139 -1.583 1.453h0.005Zm-8.6 -0.776c0.016 -0.771 -0.094 -0.845 -0.822 -0.609 -0.78 0.253 -0.562 1.336 -0.708 2.2 -0.129 0.755 0.076 1.008 0.866 0.925 1.052 -0.114 0.604 -0.039 0.655 -2.516h0.009Zm7.75 9.7c1.164 -0.005 1.711 0 2.547 -0.008 0.0583 0.0106 0.1182 0.009 0.1759 -0.0047 0.0577 -0.0136 0.1119 -0.0391 0.1592 -0.0748 0.0474 -0.0357 0.0868 -0.0809 0.1158 -0.1326 0.029 -0.0517 0.047 -0.1088 0.0529 -0.1678 0.0058 -0.059 -0.0007 -0.1186 -0.019 -0.175 -0.0184 -0.0563 -0.0482 -0.1083 -0.0877 -0.1526 -0.0394 -0.0442 -0.0876 -0.0798 -0.1415 -0.1045 -0.0539 -0.0247 -0.1123 -0.038 -0.1716 -0.039 -1.3398 -0.0852 -2.6834 -0.0928 -4.024 -0.023 -0.228 0.01 -0.451 0.134 -0.433 0.419 0.018 0.417 -0.337 0.475 1.817 0.464l0.009 -0.001Zm-1.015 1.106c-0.7 -0.013 -0.833 0.79 -0.046 0.85 1.484 0.112 1.885 0.236 1.923 -0.2 0.051 -0.687 -0.651 -0.625 -1.886 -0.649l0.009 -0.001Z" stroke-width="1"></path>
      <path id="vector_9" fill="#191919" d="M49.4218 67.8841c0.032 -0.0008 0.0634 0.0079 0.0904 0.0249 0.0271 0.017 0.0486 0.0415 0.0618 0.0706 0.0132 0.0291 0.0176 0.0614 0.0126 0.093 -0.0051 0.0315 -0.0192 0.0609 -0.0408 0.0845 -2.594 2.852 -9.651 6.667 -7.564 16.367 1.364 6.342 -1.236 6.736 -0.9 5.692 0.766 -2.4 -0.031 -4.717 -0.41 -7.04 -0.928 -5.681 1.208 -10.069 5.568 -13.55 0.675 -0.541 2.208 -1.719 3.182 -1.742Z" stroke-width="1"></path>
      <path id="vector_10" fill="#191919" d="M95.3438 76.4892c0.693 0.2 0.829 3.876 6.2352 4.787 1.708 0.3091 3.468 0.132 5.08 -0.511 5.122 -2.059 2.213 -6.416 2.727 -10.5 0.037 -0.293 0.031 -0.713 0.38 -0.718 0.349 -0.005 0.5 0.371 0.541 0.714 0.6 5.261 1.617 9.168 -2.534 11.088 -7.745 3.586 -13.6932 -2.82 -12.4292 -4.86Z" stroke-width="1"></path>
      <path id="vector_11" fill="#191919" d="M92.2449 116.4c2.214 2.741 4.392 5.891 8.9441 9.4 0.269 0.207 0.8 0.459 0.536 0.857 -0.28 0.425 -0.739 0.062 -1.053 -0.127 -5.7781 -3.475 -8.5621 -8.881 -8.4271 -10.13Z" stroke-width="1"></path>
      <path id="vector_12" fill="#191919" d="M92.385 111.107c1.955 2.842 3.347 5.706 6.309 8.487 0.24 0.225 0.766 0.5 0.45 0.89 -1.03 1.269 -7.662 -6.771 -6.759 -9.377Z" stroke-width="1"></path>
      <path id="vector_13" fill="#191919" d="M94.8289 109.236c0.024 -0.191 -0.068 -0.456 0.155 -0.539 0.292 -0.11 0.37 0.207 0.47 0.371 4.253 6.93 6.4601 7.5 5.9691 8.181 -0.871 1.201 -6.6931 -5.914 -6.5941 -8.013Z" stroke-width="1"></path>
      <path id="vector_14" fill="#191919" d="M103.239 108.385c0.043 -0.125 -0.134 -0.386 0.113 -0.48 0.648 -0.248 2.026 4.022 5.142 7.879 1.238 1.533 -3.517 -0.679 -5.105 -6.394 -0.122 -0.32 -0.174 -0.663 -0.15 -1.005Z" stroke-width="1"></path>
      <path id="vector_15" fill="#191919" d="M98.8829 108.184c0.825 0.217 0.667 0.951 4.9101 6.861 0.166 0.232 0.52 0.53 0.164 0.841 -0.338 0.3 -0.626 -0.045 -0.843 -0.24 -1.899 -1.788 -3.349 -4 -4.2311 -6.455 -0.0751 -0.157 -0.1141 -0.329 -0.1141 -0.503 0 -0.175 0.039 -0.347 0.1141 -0.504Z" stroke-width="1"></path>
      <path id="vector_16" fill="#191919" d="M54.8549 85.3841c-1.321 6.038 -5.956 6.383 -4.426 5.084 3.08 -2.614 3.544 -6.259 4.221 -5.991 0.217 0.086 0.205 0.429 0.205 0.907Z" stroke-width="1"></path>
      <path id="vector_17" fill="#191919" d="M99.8058 44.111c-3.016 -0.234 -3.644 0.928 -4.105 0.3 -0.421 -0.575 0.619 -1.335 1.752 -1.574 2.468 -0.52 4.4912 0.636 4.2702 1.157 -0.064 0.148 -0.023 0.117 -1.9172 0.117Z" stroke-width="1"></path>
      <path id="vector_18" fill="#191919" d="M95.2799 56.7632c-1.016 0.519 -2.846 0.092 -2.7 -1.438 0.2005 -2.0624 0.1894 -4.1399 -0.033 -6.2 0.275 -1.906 1.3 2.5 0.931 5.852 -0.108 0.959 0.39 1.023 1.802 1.786Z" stroke-width="1"></path>
      <path id="vector_19" fill="#191919" d="M86.4 47.355c-0.216 -1.625 1.818 -3.572 4.411 -3.071 0.285 0.055 0.57 0.119 0.585 0.461 0.049 1.16 -2.391 -0.392 -4.996 2.61Z" stroke-width="1"></path>
      <path id="vector_20" fill="#191919" d="M96.406 61.94c-0.32 -0.01 -0.722 0.037 -0.765 -0.4 -0.035 -0.363 0.339 -0.381 0.593 -0.445 1.3489 -0.3257 2.5139 -1.1724 3.24 -2.355 0.143 -0.224 0.293 -0.688 0.589 -0.546 0.868 0.414 -1.121 3.824 -3.657 3.746Z" stroke-width="1"></path>
      <path id="vector_21" fill="#191919" d="M87.561 52.0112c0.174 -1.477 1.757 -1.073 1.695 0.386 -0.063 1.491 -1.726 1.259 -1.695 -0.386Z" stroke-width="1"></path>
      <path id="vector_22" fill="#191919" d="M101.2 51.0082c0 1.4 -1.764 1.132 -1.686 -0.265 0.086 -1.459 1.686 -1.549 1.686 0.265Z" stroke-width="1"></path>
      <path id="vector_23" fill="#38a1ff" d="M103.315 151.959c-1.992 0 -2.519 0.482 -2.67 -0.724 -0.366 -2.944 -0.025 -10.2 3.08 -19.336 0.16 -0.47 0.3 -0.4 0.585 -0.119 5.907 5.7 11.819 10.3 20.264 12.185 5.491 1.32 11.263 0.808 16.437 -1.456 0.837 -0.388 0.478 0.1 1.3 8.719 0.151 1.654 2.147 0.82 -38.996 0.731Z" stroke-width="1"></path>
      <path id="Subtract" fill="#38a1ff" fill-rule="evenodd" d="M36.8583 117.836c19.586 -0.467 22.9104 -0.824 23.5288 0.304 0.1292 0.235 0.1403 0.535 0.1569 0.913 0.524 11.953 0.483 12.392 -1.294 12.815 -4.0389 0.413 -8.0973 0.588 -12.1543 0.527 1.1533 0.834 2.3843 1.562 3.6782 2.173 0.1067 0.056 0.2222 0.117 0.3463 0.184 2.372 1.263 7.8939 4.203 15.4277 1.685 0.6071 -0.203 0.6047 -0.262 0.5481 -1.672 -0.0675 -1.684 -0.2124 -5.293 0.5109 -13.37 0.3 -3.324 1.254 -12.423 3.067 -15.224 -0.06 1.178 -0.3204 2.865 -0.6539 5.026 -0.8725 5.654 -2.2454 14.549 -1.8381 26.051 0.0172 0.49 0.0363 1.397 0.0604 2.54 0.0792 3.761 0.212 10.075 0.5096 12.454 0.0627 0.504 0.7445 0.472 2.4893 0.389 1.2037 -0.057 2.9134 -0.138 5.2747 -0.083 6.5515 0.149 7.928 0.491 8.1974 0.09 0.0918 -0.137 0.0549 -0.36 0.0506 -0.707 -0.0093 -0.754 -0.049 -1.508 -0.0888 -2.262 -0.0631 -1.196 -0.1261 -2.392 -0.0672 -3.588 0.0107 -0.213 0.0237 -0.426 0.0368 -0.639 0.0404 -0.661 0.0809 -1.323 0.0522 -1.983 -0.174 -3.95 -0.0586 -6.652 0.0239 -8.584 0.0702 -1.643 0.1167 -2.73 -0.0589 -3.555 -0.3313 -1.556 -1.6473 -5.645 -3.1244 -10.234 -1.8895 -5.87 -4.0426 -12.559 -4.7346 -15.812 -0.4828 -2.271 0.0803 -3.286 2.7399 -8.0824 0.4251 -0.7664 0.9037 -1.6294 1.4401 -2.6095 0.0958 -0.1593 0.1483 -0.3408 0.1521 -0.5266 0.0039 -0.1858 -0.041 -0.3694 -0.1301 -0.5324 -0.9078 -1.9522 -1.5952 -3.1572 -2.0642 -3.9792 -0.7524 -1.3187 -0.9425 -1.6519 -0.5778 -2.5038 0.744 -1.745 5.554 -10.939 5.56 -10.949 -0.607 -0.16 -4.056 1.086 -4.34 1.194 -12.332 4.735 -19.8 14.599 -21.607 21.715 -0.4222 1.6619 2.5837 5.4209 4.7217 8.0939 1.2296 1.537 2.172 2.716 2.0103 2.93 -0.573 0.759 -4.855 -3.972 -7.3 -8.053 -0.7523 -1.257 -1.2067 -2.2741 -1.8256 -3.6592 -0.6216 -1.3913 -1.4092 -3.1541 -2.8314 -5.9047 -0.4079 -0.788 -0.7227 -0.6269 -1.5548 -0.2012 -0.8185 0.4187 -2.1373 1.0935 -4.5372 1.3732 -4.5011 0.524 -6.3454 -1.2707 -7.4023 -2.2993 -0.7725 -0.7517 -1.1244 -1.0942 -1.7857 0.1773 -3.4 6.545 -1.527 22.9639 -0.9 25.4349 0.0776 0.303 0.1744 0.619 0.2874 0.944Z" clip-rule="evenodd" stroke-width="1"></path>
    </g>
    <g id="object1">
      <path id="vector_24" fill="#191919" d="M19.2191 132.783c4.3217 0.262 8.6538 0.307 12.98 0.135 1.011 -0.033 0.62 -0.02 0.615 7.635 -0.005 8.571 0.417 8.53 -0.671 8.526 -8.933 -0.041 -9.159 1.12 -9.054 4.5 0.01 0.332 0.276 0.755 0.6 0.57 1.05 -0.608 -0.973 -3.473 2.478 -3.83 3.312 -0.343 14.866 -0.53 22.492 -0.714 1.092 -0.027 1.578 -0.047 1.576 -0.485 0 -0.418 -0.556 -0.441 -1.208 -0.449 -14.765 -0.18 -15.36 1.088 -15.332 -0.373 0.058 -2.969 0.023 -14.15 0.007 -16.971 -0.007 -1.18 -0.085 -0.7 7.593 -1.083 0.837 -0.042 0.517 0 0.573 6.83 0.059 7.29 -0.041 7.26 0.513 7.266 0.486 0 0.551 0.01 0.369 -14.129 -0.006 -0.452 -0.062 -0.879 -0.679 -0.852 -9.546 0.422 -9.145 -0.063 -9.164 2.1 -0.005 0.665 -0.006 0.263 -12.8 0.269 -1.145 0 -1.415 -0.318 -1.6 -1.455 -0.3911 -3.155 -0.4962 -6.338 -0.314 -9.512 0.106 -1.276 -0.027 -1.871 3.166 -1.886 38.342 -0.172 38.046 -1.8 38.313 1 0.2877 3.218 0.2562 6.456 -0.094 9.668 -0.182 1.777 -0.6 1.268 -8.927 1.848 -2.532 0.177 -6.678 0.064 -6.663 0.571 0.014 0.462 1.851 0.484 2.313 0.474 9.62 -0.2 11.276 -0.156 12.957 -0.556 1.779 -0.423 1.818 -0.862 1.294 -12.81 -0.115 -2.616 0.033 -1.523 -40.655 -0.882 -2.107 0.033 -2.6 0.575 -2.627 2.622 -0.134 11.165 -0.259 11.645 1.949 11.973Z" stroke-width="1"></path>
    </g>
    <g id="jars on table">
      <path id="Subtract_2" fill="#191919" fill-rule="evenodd" d="M169.695 140.997c-2.27 -0.252 -4.561 -0.27 -6.836 -0.052 -1.654 0.35 -2.066 1.235 -2.165 3.913 -0.352 9.523 -0.327 9.532 0.362 9.778 0.007 0.002 0.013 0.005 0.02 0.007 7.31 0.05 9.371 0.024 9.976 -0.01 -0.713 -0.034 -0.873 -0.094 -0.985 -0.203 -0.028 -0.028 -0.053 -0.058 -0.082 -0.092 -0.202 -0.23 -0.28 -0.545 -0.308 -0.85 -0.133 -0.002 -0.268 -0.002 -0.459 -0.002 -0.752 0.002 -2.36 0.005 -8.007 -0.121 0.156 -7.77 0.216 -7.767 0.681 -7.746 4.379 0.196 6.619 0.056 7.764 -0.02 0.001 -0.232 0.001 -0.461 0.002 -0.686 -0.2 -0.004 -0.432 -0.011 -0.7 -0.019 -1.299 -0.039 -3.452 -0.104 -7.005 -0.004 -0.235 0.01 -0.538 -0.106 -0.51 -0.336 0.051 -0.422 0.269 -0.577 0.558 -0.571 0.773 0.014 1.465 0.027 2.084 0.039 2.744 0.052 4.057 0.077 4.682 0.049 0.978 -0.042 0.5 -0.7 0.12 -0.709 -2.503 -0.085 -4.156 -0.097 -5.241 -0.105 -1.822 -0.013 -2.04 -0.014 -1.983 -0.332 0.117 -0.652 0.43 -0.811 1.085 -1 1.457 -0.424 5.168 -0.248 6.933 -0.055 0.005 -0.299 0.009 -0.59 0.014 -0.873Zm-0.04 6.493c-0.558 0.008 -1.372 -0.011 -2.561 0.021 -0.969 0.026 -0.965 1.172 0.02 1.192 1.183 0.024 1.99 0.003 2.542 -0.013 -0.001 -0.409 -0.001 -0.809 -0.001 -1.2Z" clip-rule="evenodd" stroke-width="1"></path>
      <path id="vector_25" fill="#191919" d="M183.4 154.715c0.418 0.003 0.821 -0.158 1.122 -0.449 0.301 -0.291 0.476 -0.688 0.488 -1.106 0.007 -0.265 0.118 -1.617 0.123 -1.726 1.028 -19.3 0.754 -19.643 -1.647 -19.83 -3.649 -0.341 -7.32 -0.388 -10.977 -0.139 -2.947 0.246 -2.883 3.873 -2.85 21.084 0.053 0.253 -0.147 1.25 0.322 1.789 0.366 0.417 0.012 0.306 13.419 0.377Zm-11.765 -18.372c4.626 0.145 11.147 -0.025 11.159 -0.025 1 -0.093 0.718 -0.867 0.1 -0.874 -8.054 -0.091 -9.087 -0.214 -11.2 -0.107 -0.412 0.021 -0.632 -0.043 -0.519 -0.517 0.541 -2.262 -0.4 -2.79 10 -2.234 3.142 0.168 3.287 -0.505 3.25 4.713 0 0.548 0 0.345 -13.507 -0.086 0.05 -0.458 -0.063 -0.895 0.721 -0.87h-0.004Zm-0.918 16.256c0.1 -4.456 0.266 -8.913 0.185 -13.373 -0.008 -0.441 0.018 -0.692 0.6 -0.665 12.5 0.571 12.974 -0.439 12.892 0.874 -0.808 12.9 -0.107 13.809 -1.1 13.805 -12.045 -0.055 -12.601 0.593 -12.573 -0.64l-0.004 -0.001Z" stroke-width="1"></path>
      <path id="vector_26" fill="#191919" d="M173.42 142.837c-0.119 -0.017 -0.229 -0.076 -0.308 -0.167 -0.08 -0.091 -0.125 -0.207 -0.126 -0.328 -0.001 -0.121 0.041 -0.238 0.118 -0.331 0.078 -0.092 0.186 -0.154 0.305 -0.174 2.78 -0.38 5.586 -0.529 8.39 -0.444 0.523 0.021 1.068 0.046 1.1 0.729 0.032 0.656 -0.534 0.754 -0.991 0.767 -1.055 0.032 -7.208 0.195 -8.488 -0.052Z" stroke-width="1"></path>
      <path id="vector_27" fill="#191919" d="M179.651 145.556c-1.99 0.253 -4.003 0.283 -6 0.09 -0.794 -0.072 -0.784 -0.977 0.045 -1.051 8.123 -0.721 6.757 0.854 5.955 0.961Z" stroke-width="1"></path>
    </g>
    <g id="shelf with jars">
      <path id="vector_28" fill="#191919" d="M175.41 69.49c-1.233 -0.1 -41.725 0.049 -43.072 0.181 -0.26 0.025 -0.75 0.483 0.049 0.566 3.819 0.4 28.119 0.351 28.108 0.378 27.919 0.176 27.867 0.373 27.917 -0.419 0.042 -0.656 0.556 -0.706 -13.002 -0.706Z" stroke-width="1"></path>
      <path id="vector_29" fill="#191919" d="M173.573 70.4109c0.615 -0.3 0.538 -0.388 0.53 -4.871 -0.014 -7.256 0.548 -8.387 -1.66 -8.665 -2.433 -0.3076 -4.893 -0.3449 -7.335 -0.111 -1.654 0.349 -2.066 1.235 -2.165 3.913 -0.355 9.613 -0.326 9.53 0.382 9.785 10.462 0.07 10.175 -0.014 10.248 -0.051Zm-9.883 -10.039c0.049 -0.423 0.264 -0.393 0.554 -0.388 7.343 0.136 7.347 0.2 7.339 -0.17 0 -0.248 -0.332 -0.22 -0.56 -0.228 -6.7 -0.228 -7.358 0.269 -7.155 -0.72 0.045 -0.2833 0.179 -0.5451 0.382 -0.7472 0.204 -0.2022 0.466 -0.3341 0.75 -0.3768 1.549 -0.451 5.644 -0.224 7.243 -0.019 0.931 0.119 0.787 0.63 0.9 2.44 0.064 1.032 -0.307 0.3 -8.937 0.544 -0.239 0.006 -0.543 -0.107 -0.516 -0.335Zm8.909 8.962c-1.422 -0.076 -0.062 0.054 -9.141 -0.149 0.154 -7.65 -0.107 -8.027 0.714 -7.99 8.948 0.4 8.93 -0.355 8.932 0.648 0 1.847 0.209 1.384 -3.764 1.492 -0.968 0.026 -0.964 1.172 0.021 1.192 3.734 0.075 3.731 -0.291 3.726 0.427 -0.028 4.385 0.252 4.42 -0.487 4.38h-0.001Z" stroke-width="1"></path>
      <path id="vector_30" fill="#191919" d="M158.312 70.43c0.354 0.0022 0.695 -0.1343 0.95 -0.3805 0.255 -0.2461 0.404 -0.5823 0.414 -0.9365 0.007 -0.224 0.1 -1.369 0.105 -1.461 0.953 -16.34 0.638 -16.636 -1.4 -16.794 -3.092 -0.2896 -6.202 -0.3287 -9.3 -0.117 -2.5 0.209 -2.442 3.281 -2.415 17.857 0.045 0.213 -0.123 1.059 0.273 1.514 0.315 0.353 0.016 0.254 11.373 0.318Zm-9.964 -15.559c3.919 0.122 9.441 -0.02 9.451 -0.02 0.244 -0.023 0.577 -0.009 0.558 -0.343 -0.016 -0.285 -0.341 -0.248 -0.552 -0.25 -6.82 -0.083 -7.655 -0.11 -9.449 -0.017 -0.348 0.018 -0.535 -0.037 -0.439 -0.439 0.526 -2.193 -0.27 -2.583 8.507 -2.115 2.661 0.141 2.788 -0.427 2.754 3.99 0 0.464 0 0.292 -11.439 -0.071 0.041 -0.386 -0.053 -0.756 0.609 -0.735Zm-0.775 13.768c0.088 -3.775 0.221 -7.549 0.156 -11.326 -0.007 -0.374 0.014 -0.585 0.511 -0.562 10.589 0.483 10.987 -0.372 10.917 0.74 -0.684 10.914 -0.09 11.7 -0.929 11.692 -10.21 -0.051 -10.68 0.5 -10.655 -0.544Z" stroke-width="1"></path>
      <path id="vector_31" fill="#191919" d="M150.216 60.991c-1.231 -0.117 -1.19 -1.036 -0.175 -1.142 2.069 -0.1741 4.146 -0.2229 6.221 -0.146 0.486 0.009 1.095 0.183 1.092 0.677 -0.006 0.776 -0.741 0.738 -3 0.747 -0.299 0.001 -3.511 -0.077 -4.138 -0.136Z" stroke-width="1"></path>
      <path id="vector_32" fill="#191919" d="M152.111 63.5c-2.076 -0.094 -2.566 -0.006 -2.536 -0.509 0.017 -0.279 0.288 -0.319 0.509 -0.341 1.421 -0.1024 2.847 -0.0927 4.266 0.029 0.677 0.043 0.626 0.809 0 0.831 -0.746 0.0435 -1.494 0.0402 -2.239 -0.01Z" stroke-width="1"></path>
    </g>
  </g>
</svg>